# xmcd CD database file
#
# Track frame offsets:
#	150
#	15061
#	44580
#	79328
#	109142
#	149663
#	185306
#	213262
#	229725
#	254294
#
# Disc length: 3915 seconds
#
# Revision: 0
# Processed by: cddbd v1.5PL3 Copyright (c) Steve Scherf et al.
# Submitted via: CDex 1.51
#
DISCID=830f490a
DTITLE=Joe Chindamo - The First Take
DYEAR=1993
DGENRE=Jazz
TTITLE0=What Is This Thing Called Love
TTITLE1=C Jam Blues
TTITLE2=Speak Low
TTITLE3=Too Close For Comfort
TTITLE4=Emily
TTITLE5=September Song
TTITLE6=It's You Or No-One
TTITLE7=S'Wonderful
TTITLE8=I've Grown Accustomed To Her Face
TTITLE9=The Trio In Rehearsal
EXTD=YEAR: 1993
EXTT0=
EXTT1=
EXTT2=
EXTT3=
EXTT4=
EXTT5=
EXTT6=
EXTT7=
EXTT8=
EXTT9=
PLAYORDER=
